<?xml version="1.0" encoding="utf-8"?>
<!-- Generator: Adobe Illustrator 25.0.0, SVG Export Plug-In . SVG Version: 6.00 Build 0)  -->
<svg version="1.1" id="Capa_1" xmlns="http://www.w3.org/2000/svg" xmlns:xlink="http://www.w3.org/1999/xlink" x="0px" y="0px"
	 viewBox="0 0 211.4 211.4" style="enable-background:new 0 0 211.4 211.4;" xml:space="preserve">
<style type="text/css">
	.st0{fill:#F9F9F9;}
</style>
<g>
	<path class="st0" d="M182.3,56.6c-16.5-12.1-37-19.3-54.9-19.3c-18,0-31.3,7.3-39.6,21.6c-6.5,11.2-9.6,26.5-9.6,46.8
		c0,20.2,3.1,35.5,9.6,46.8c8.2,14.3,21.6,21.6,39.6,21.6c17.9,0,38.4-7.2,54.9-19.3c18.7-13.7,29.1-31.2,29.1-49.1
		C211.4,87.8,201.1,70.3,182.3,56.6z M173.5,142.7c-13.8,10.1-31.4,16.4-46,16.4c-15.9,0-34.2-6.1-34.2-53.4s18.3-53.4,34.2-53.4
		c14.6,0,32.2,6.3,46,16.4c14.6,10.7,22.9,24.1,22.9,37C196.4,118.5,188,132,173.5,142.7z"/>
	<path class="st0" d="M64.1,44.9l-56.6,0c-4.1,0-7.5,3.4-7.5,7.5s3.4,7.5,7.5,7.5l56.6,0c4.1,0,7.5-3.4,7.5-7.5S68.2,44.9,64.1,44.9
		z"/>
	<path class="st0" d="M64.1,72.3H7.5c-4.1,0-7.5,3.4-7.5,7.5s3.4,7.5,7.5,7.5h56.6c4.1,0,7.5-3.4,7.5-7.5
		C71.6,75.7,68.2,72.3,64.1,72.3z"/>
	<path class="st0" d="M64.1,99.7H7.5c-4.1,0-7.5,3.4-7.5,7.5s3.4,7.5,7.5,7.5h56.6c4.1,0,7.5-3.4,7.5-7.5S68.2,99.7,64.1,99.7z"/>
	<path class="st0" d="M64.1,127H7.5c-4.1,0-7.5,3.4-7.5,7.5s3.4,7.5,7.5,7.5h56.6c4.1,0,7.5-3.4,7.5-7.5S68.2,127,64.1,127z"/>
	<path class="st0" d="M64.1,154.4H7.5c-4.1,0-7.5,3.4-7.5,7.5s3.4,7.5,7.5,7.5h56.6c4.1,0,7.5-3.4,7.5-7.5S68.2,154.4,64.1,154.4z"
		/>
</g>
</svg>
